<?xml version="1.0" encoding="UTF-8" standalone="no"?>
<svg
   version="1.1"
   id="Layer_1"
   x="0px"
   y="0px"
   width="600"
   viewBox="0 0 600 200"
   enable-background="new 0 0 1024 498"
   xml:space="preserve"
   sodipodi:docname="file.svg"
   inkscape:version="1.4.3 (0d15f75, 2025-12-25)"
   height="200"
   xmlns:inkscape="http://www.inkscape.org/namespaces/inkscape"
   xmlns:sodipodi="http://sodipodi.sourceforge.net/DTD/sodipodi-0.dtd"
   xmlns="http://www.w3.org/2000/svg"
   xmlns:svg="http://www.w3.org/2000/svg"><defs
   id="defs60"><inkscape:path-effect
     effect="fillet_chamfer"
     id="path-effect61"
     is_visible="true"
     lpeversion="1"
     nodesatellites_param="F,0,0,1,0,0,0,1 @ F,0,0,1,0,0.95767328,0,1 @ F,0,0,1,0,0,0,1 @ F,0,0,1,0,0,0,1 @ F,0,0,1,0,0,0,1 @ F,0,0,1,0,0,0,1 @ F,0,0,1,0,0,0,1 @ F,0,0,1,0,0,0,1 @ F,0,0,1,0,0,0,1 @ F,0,0,1,0,0,0,1 @ F,0,0,1,0,0,0,1 @ F,0,0,1,0,0,0,1 @ F,0,0,1,0,0,0,1 @ F,0,0,1,0,0.89571357,0,1 @ F,0,0,1,0,0.61843262,0,1 @ F,0,0,1,0,0,0,1 @ F,0,0,1,0,0,0,1"
     radius="0"
     unit="px"
     method="auto"
     mode="F"
     chamfer_steps="1"
     flexible="false"
     use_knot_distance="true"
     apply_no_radius="true"
     apply_with_radius="true"
     only_selected="false"
     hide_knots="false" /><inkscape:path-effect
     effect="fillet_chamfer"
     id="path-effect60"
     is_visible="true"
     lpeversion="1"
     nodesatellites_param="F,0,0,1,0,0,0,1 @ F,0,0,1,0,0,0,1 @ F,0,0,1,0,0,0,1 @ F,0,0,1,0,0,0,1 @ F,0,0,1,0,0,0,1 @ F,0,0,1,0,0,0,1 @ F,0,0,1,0,0,0,1 @ F,0,0,1,0,0,0,1 @ F,0,0,1,0,0,0,1 @ F,0,0,1,0,0,0,1 @ F,0,0,1,0,0,0,1 @ F,0,0,1,0,0,0,1 @ F,0,0,1,0,0,0,1 @ F,0,0,1,0,0,0,1 @ F,0,0,1,0,0,0,1 @ F,0,0,1,0,0,0,1 @ F,0,0,1,0,0,0,1"
     radius="0"
     unit="px"
     method="auto"
     mode="F"
     chamfer_steps="1"
     flexible="false"
     use_knot_distance="true"
     apply_no_radius="true"
     apply_with_radius="true"
     only_selected="false"
     hide_knots="false" /></defs><sodipodi:namedview
   id="namedview60"
   pagecolor="#d6d6d6"
   bordercolor="#000000"
   borderopacity="0"
   inkscape:showpageshadow="2"
   inkscape:pageopacity="0.0"
   inkscape:pagecheckerboard="0"
   inkscape:deskcolor="#b9b9b9"
   inkscape:zoom="1.4142136"
   inkscape:cx="409.76838"
   inkscape:cy="160.86679"
   inkscape:window-width="1920"
   inkscape:window-height="1004"
   inkscape:window-x="-8"
   inkscape:window-y="-8"
   inkscape:window-maximized="1"
   inkscape:current-layer="Layer_1" />

<path
   fill="#335065"
   opacity="1"
   stroke="none"
   d="m 80.668668,131.47124 c -9.24375,4.19281 -18.44349,4.35638 -27.68216,1.80908 -11.51828,-3.17587 -18.62488,-11.09156 -19.35111,-22.77266 -0.92667,-14.904935 -0.70904,-30.012677 -0.70904,-45.403857 h 16.4667 c 0,1.58254 -0.053,3.43113 -0.0459,5.17811 0.0479,11.82568 -0.15777,23.659622 0.22303,35.474617 0.35476,11.0063 7.66995,16.60371 18.43624,14.74367 7.11197,-1.22873 11.41178,-7.09375 11.57398,-16.41672 0.19699,-11.323655 0.11068,-22.652237 0.14529,-33.978697 0.005,-1.61412 6.7e-4,-3.12885 6.7e-4,-4.99791 l 16.09862,-0.0167 c 0.009,1.4278 -0.0685,2.8014 -0.0675,4.23215 -0.007,12.32533 0.30606,24.665162 -0.19317,36.971567 -0.43274,10.66677 -4.36329,19.79323 -14.89569,25.17739 z"
   id="path2"
   sodipodi:nodetypes="cssccssssscccsc"
   style="display:inline" />
<path
   fill="#2f4c61"
   opacity="1"
   stroke="none"
   d="m 381.36908,266.04761 c -0.0886,2.86666 0.18267,6.14367 -0.026,9.4803 -0.033,0.52745 -0.42894,1.23406 -0.90707,1.19689 -0.10235,-0.008 -0.2305,-0.0107 -0.39377,-0.003 -1.64654,-0.0508 -3.56934,0.0752 -5.98609,-0.0261 -3.25192,-0.071 -5.7558,0.0466 -8.23755,0.026 -0.0747,-7.98293 -0.0916,-16.1046 -0.22119,-24.08665 -0.0458,-2.8219 -0.10629,-5.67099 -0.52087,-8.45389 -0.89774,-6.02535 -4.41266,-9.42284 -10.03235,-10.05765 -5.79376,-0.65448 -11.11621,2.41146 -12.89572,7.98593 -0.89041,2.78931 -1.12818,5.87036 -1.18045,8.82798 -0.14936,8.44629 -0.0213,17.06878 -0.0213,25.78075 l -15.61334,0.0156 v -54.74951 l 13.99489,0.44057 c 0.49444,0.0156 0.97375,0.42428 0.98635,0.91827 0.0236,0.92658 -0.14545,1.7853 -0.0812,2.72124 0.0234,0.34045 0.306,0.45657 0.5915,0.2691 17.49681,-11.48934 40.9867,-4.92572 40.35224,19.64629 0.057,7.28827 0.12442,13.67784 0.1919,20.0674 z"
   id="path3"
   sodipodi:nodetypes="cccccscssscccccccc"
   inkscape:path-effect="#path-effect61"
   inkscape:original-d="m 381.36908,266.04761 c -0.097,3.13952 0.23756,6.77121 -0.0994,10.43438 -0.5599,0.56003 -0.20548,0.19023 -1.22748,0.24007 -1.64654,-0.0508 -3.56934,0.0752 -5.98609,-0.0261 -3.25192,-0.071 -5.7558,0.0466 -8.23755,0.026 -0.0747,-7.98293 -0.0916,-16.1046 -0.22119,-24.08665 -0.0458,-2.8219 -0.10629,-5.67099 -0.52087,-8.45389 -0.89774,-6.02535 -4.41266,-9.42284 -10.03235,-10.05765 -5.79376,-0.65448 -11.11621,2.41146 -12.89572,7.98593 -0.89041,2.78931 -1.12818,5.87036 -1.18045,8.82798 -0.14936,8.44629 -0.0213,17.06878 -0.0213,25.78075 l -15.61334,0.0156 v -54.74951 l 14.89016,0.46875 c 0.28232,1.49953 -0.1928,2.73594 0.0874,4.22433 17.54687,-11.96048 41.50692,-5.51106 40.86623,19.30239 0.057,7.28827 0.12442,13.67784 0.1919,20.0674 z"
   style="display:inline"
   transform="translate(-216.37468,-143.54268)" />
<path
   fill="#f6a02c"
   opacity="1"
   stroke="none"
   d="m 234.68748,84.041815 c 4.1972,7.04947 8.47017,14.46408 12.99956,22.071525 5.53408,-9.877005 10.77682,-19.233435 16.0184,-28.590527 0.32465,-0.57959 0.63408,-1.1773 0.94491,-1.75151 4.88138,-9.01769 9.62412,-11.60082 21.04096,-10.47653 0,18.40423 0.8242,37.341717 0.35319,56.659647 -4.31808,-1.88889 -8.55189,-4.16357 -12.43187,-6.50229 -0.85272,1.96894 -1.53884,3.55325 -2.22497,5.13755 V 93.852495 c -0.11549,-0.62013 -0.11678,-1.40863 -1.37033,-0.35013 -0.72095,0.92659 -1.57712,1.77788 -2.14163,2.79158 -4.85126,8.710995 -9.74796,17.399455 -14.40754,26.212815 -1.50262,2.84213 -3.27328,3.99582 -6.58792,4.02923 -3.28143,0.0331 -4.71597,-1.44027 -6.02591,-4.01153 -2.03558,-3.99552 -4.3363,-7.85593 -6.93182,-12.31622 -3.48764,-6.49793 -6.79471,-12.211055 -9.50763,-18.271205 3.61899,-2.49916 7.02116,-5.50084 10.2726,-7.89522 z"
   id="path4"
   sodipodi:nodetypes="ccsscccccccsssccc"
   style="display:inline" />
<path
   fill="#f27c32"
   opacity="1"
   stroke="none"
   d="m 325.68002,118.63518 c -0.31262,0.10623 -0.62384,0.30099 -0.93799,0.30581 -9.58002,0.14612 -9.7392,0.0849 -13.24927,9.66886 -1.29571,3.53775 -3.31202,4.12427 -7.20581,4.00537 -3.36718,-0.10282 -6.4829,0.059 -10.32776,-0.0916 0.10095,-0.9291 -0.0675,-1.07644 0.15503,-1.59668 8.84467,-20.39476 15.99371,-37.632135 25.39035,-58.283127 1.98379,-4.35978 7.62646,-7.00511 11.53679,-6.83114 7.64921,0.34032 10.91447,7.89173 12.65798,11.62007 2.37555,5.07989 3.50241,7.404302 5.57201,12.639792 -4.43665,2.06063 -8.80361,3.81198 -13.19344,5.23031 -1.97248,-4.41174 -3.58591,-11.19315 -5.6544,-16.179452 -3.2965,8.375252 -6.22597,18.131172 -9.49104,26.426537 4.55426,0.0609 8.02014,0.20648 11.41484,0.19074 -2.39588,4.37744 -4.51501,8.74093 -6.66729,12.8945 z"
   id="path5"
   sodipodi:nodetypes="ccssccsssccccccc"
   style="display:inline" />
<path
   fill="#f8bf20"
   opacity="1"
   stroke="none"
   d="m 234.69399,84.053245 c -3.05964,2.94086 -6.05046,4.7206 -10.25299,7.96548 -0.6185,2.24876 -0.68567,4.06856 -0.71655,5.88899 -0.15185,8.946835 0.66589,18.000595 -2.95605,26.561015 -5.98609,10.00498 -14.77165,14.92925 -27.04261,12.42003 -0.0725,-5.33838 -0.22932,-10.61133 0.0338,-15.30975 8.90457,3.85477 14.98921,1.43001 15.23299,-8.45433 0.3446,-13.973265 0.16046,-27.959575 0.20053,-41.940317 0.006,-1.96123 7.9e-4,-3.92249 7.9e-4,-6.55265 4.70142,0 8.83353,-0.27769 12.8909,0.15122 1.41229,0.14929 3.05542,1.79919 3.87775,3.1875 3.04889,5.14738 5.79953,10.47143 8.73147,16.082812 z"
   id="path6"
   sodipodi:nodetypes="ccscccsscsscc"
   style="display:inline" />
<path
   fill="#335065"
   opacity="1"
   stroke="none"
   d="m 193.83359,121.62366 c -0.0499,5.00733 0.16674,10.10874 -0.10089,15.26157 -9.92566,-2.0339 -14.80927,-8.8374 -16.18922,-19.46044 -0.14212,-6.91735 -0.2572,-12.97042 -0.37225,-19.023495 V 78.420903 h 15.15036 c 0,3.06154 0,6.110072 -0.0165,10.052582 0.0653,4.25203 0.14709,7.61008 0.22885,10.96812 0.51679,7.416275 0.56956,14.456895 1.2996,22.182055 z"
   id="path7"
   sodipodi:nodetypes="cccccccccc"
   style="display:inline" />
<path
   fill="#ef6837"
   opacity="1"
   stroke="none"
   d="m 336.01226,95.105545 c 4.14612,-1.66296 8.76553,-3.3332 13.25455,-5.04033 4.20867,9.61777 8.40891,19.083895 12.44865,27.848315 -4.32703,2.77023 -8.73478,5.30755 -12.76695,7.56866 -1.08026,-2.16147 -2.21521,-4.23703 -3.78601,-6.67489 -0.15637,-0.2699 -1.17294,-0.2634 -1.60193,-0.2569 -5.69501,0.10269 -11.79528,0.11941 -17.95062,0.15344 1.69202,-4.22223 3.87098,-8.53315 6.70203,-12.97597 2.70007,-0.0739 5.22515,-0.11164 7.6712,-0.13191 -1.50264,-3.76675 -2.92963,-7.196705 -3.97092,-10.490415 z"
   id="path8"
   sodipodi:nodetypes="cccccccccc"
   style="display:inline" />
<path
   fill="#f04f30"
   opacity="1"
   stroke="none"
   d="m 459.46731,94.150715 c 2.45593,-2.83019 5.42755,-6.05098 8.56634,-8.99693 4.91461,1.85455 7.96528,6.61628 13.5799,5.14546 -1.09003,1.39894 -2.61755,3.14162 -3.72449,4.56222 3.26398,4.51929 6.36408,8.811595 9.5094,13.774945 -3.39526,2.76158 -6.52484,5.03377 -7.02917,9.56066 -0.0584,0.52414 -1.81958,0.85855 -2.79138,1.28094 -2.39649,-3.04806 -10.17896,-14.5121 -12.25647,-16.58498 -2.58149,-2.57571 -3.25556,-6.183755 -5.85413,-8.742315 z"
   id="path9"
   sodipodi:nodetypes="cccccscsc"
   style="display:inline" />
<path
   fill="#ef6837"
   opacity="1"
   stroke="none"
   d="m 406.62777,78.455733 c -10.76727,0 -21.53448,0 -32.60803,0 0,-4.70489 0,-8.9203 0,-13.51048 11.11731,0 22.0285,0 33.13708,0.53009 -3.56012,4.4751 -0.25708,8.83203 -0.52905,12.98039 z"
   id="path10"
   style="display:inline" />
<path
   fill="#f15a3e"
   opacity="1"
   stroke="none"
   d="m 429.49538,97.164385 c -4.99225,11.133175 -0.11732,-0.84271 -2.66424,6.022465 -3.37374,4.73789 0.50845,0.76435 -7.67737,8.30303 -0.15977,0.10016 -0.61321,0.76442 -0.54321,1.94562 -0.0621,0.26289 0.0348,0.83039 0.43957,1.28378 -0.0143,0.006 0.46147,0.73621 0.68299,0.91962 0.96096,1.14351 0.56099,0.85958 1.05499,1.40763 0,0 1.04422,1.18187 1.05092,1.58407 -1.10861,4.11532 -2.68441,6.58184 -7.69696,5.30951 -0.83171,-0.21111 -1.51007,1.86664 -2.54382,2.71692 -0.83524,-1.2079 -2.41284,-3.03339 -3.4752,-4.76772 7.65727,-12.99788 9.44827,-8.31438 0.59581,-20.36729 -0.0935,-0.12735 -0.68132,-0.12945 -0.81993,-0.21985 5.14168,-0.71036 4.99493,-2.205745 6.00682,-3.032685 5.13878,1.970385 7.5323,-0.48456 8.53802,-4.1766 1.5535,-5.70299 3.70951,-6.4758 8.60535,-5.51012 z"
   id="path11"
   sodipodi:nodetypes="ccccccccsccsccscc"
   style="display:inline" />
<path
   fill="#f15a3e"
   opacity="1"
   stroke="none"
   d="m 459.75912,93.858955 c 2.90051,2.41282 5.10609,5.23936 7.68732,7.815325 2.27349,2.26886 5.45389,4.36439 3.36663,8.35567 -1.33087,-0.89647 -2.73034,-2.4722 -4.00457,-3.85239 -3.70777,4.15896 -7.21949,8.09809 -11.28559,12.26297 -4.00256,-2.56747 -7.28697,-7.21589 -10.81187,-10.07122 4.04518,-3.70887 12.37041,-12.003205 15.04808,-14.510355 z"
   id="path12"
   sodipodi:nodetypes="csccccc"
   style="display:inline" />
<path
   fill="#f04f30"
   opacity="1"
   stroke="none"
   d="m 374.52102,116.37388 c -0.0228,-2.70159 -0.0666,-4.44731 0.0504,-7.80488 3.64776,-2.15272 5.28389,-0.0306 6.00527,2.63536 0.62396,2.306 0.99243,4.68115 1.55688,7.43005 3.08362,-1.22702 5.59149,-2.22494 8.09937,-3.22287 0.0172,5.05948 0.32156,7.25739 0.11141,12.89316 -0.003,0.93306 0.1,4.20269 0.0383,4.41755 -4.56752,0.0415 -10.58689,0.0815 -15.73175,-0.0249 -0.0941,-5.19314 -0.15149,-10.15646 -0.10637,-14.60465 z"
   id="path13"
   sodipodi:nodetypes="ccsccccccc"
   style="display:inline" />
<path
   fill="#335065"
   opacity="1"
   stroke="none"
   d="m 176.92733,65.900503 c -2.19479,-6.00586 -0.50223,-10.6995 4.30152,-12.8295 4.32412,-1.91735 9.41128,-0.34792 11.76922,3.63086 2.38925,4.0316 1.50699,8.92793 -2.08926,11.59503 -4.26972,3.16656 -9.5304,2.37631 -13.98148,-2.39639 z"
   id="path14"
   style="display:inline" />
<path
   fill="#f0614a"
   opacity="1"
   stroke="none"
   d="m 390.88049,115.26261 c -2.89026,1.13581 -5.6854,2.20002 -8.76902,3.42704 -0.56445,-2.7489 -0.98894,-5.14804 -1.6129,-7.45404 -0.72138,-2.66596 -2.35672,-4.35796 -5.92856,-2.65088 0.0285,-2.17505 -0.005,-3.94783 0.0126,-6.75598 7.65222,0.17284 14.23973,-0.0794 20.92196,-0.0402 0.75214,4.48408 1.23382,8.70294 1.53271,12.66492 -1.85852,0.14639 -1.27531,0.14918 -3.51622,0.43351 z"
   id="path15"
   sodipodi:nodetypes="ccscccccc"
   style="display:inline" />
<path
   fill="#f0614a"
   opacity="1"
   stroke="none"
   d="m 498.39265,64.655543 c 6.9439,-0.12488 14.08778,-0.16367 21.02949,-0.0878 1.17231,0.0128 2.70911,1.06726 3.42005,2.09514 1.7525,2.53356 3.12274,5.33145 4.68756,8.09528 -7.8924,1.80281 -7.8924,1.80281 -9.51971,11.592692 -3.96875,-6.194612 -7.61408,-11.820752 -11.18427,-17.494172 -1.12225,-1.78352 -2.60516,-3.25886 -5.55469,-1.45462 -1.41101,-0.78895 -1.98634,-2.01788 -2.87843,-2.74648 z"
   id="path16"
   sodipodi:nodetypes="cssccscc"
   style="display:inline" />
<path
   fill="#f04f30"
   opacity="1"
   stroke="none"
   d="m 396.7779,114.50206 c -0.7024,-4.05478 -1.29069,-8.36617 -1.59361,-12.70586 3.85074,-0.11916 8.31066,-0.15841 12.68231,-0.52742 0.57971,0.0685 0.75153,0.13149 0.85224,0.25324 9.54357,11.53457 7.18306,7.80024 -0.52934,20.48867 -0.7111,-0.86949 -1.54563,-1.88061 -2.37612,-2.83981 -2.46848,-2.85105 -4.65664,-5.43127 -9.03548,-4.66882 z"
   id="path17"
   sodipodi:nodetypes="cccccsc"
   style="display:inline" />
<path
   fill="#f15a3e"
   opacity="1"
   stroke="none"
   d="m 550.65158,76.436983 c 3.02441,-11.2365 5.43707,-12.54889 22.13452,-11.49171 -3.93329,7.17919 -7.68775,14.03196 -11.4422,20.884732 -1.44812,-5.426542 -1.89399,-11.298892 -10.29328,-9.467352 -0.43628,0.0576 -0.39904,0.0743 -0.39904,0.0743 z"
   id="path18"
   style="display:inline" />
<path
   fill="#f15a3e"
   opacity="1"
   stroke="none"
   d="m 406.60741,78.445773 c -0.0391,-4.29307 -3.4482,-8.67502 0.48313,-12.96835 8.09704,0.17752 15.23163,3.70701 20.19971,10.19177 -4.44794,2.73129 -8.79669,4.62619 -13.02826,6.89609 -1.67392,-1.50084 -1.88467,-3.77163 -7.65458,-4.11951 z"
   id="path19"
   sodipodi:nodetypes="ccccc"
   style="display:inline" />
<path
   fill="#f15a3e"
   opacity="1"
   stroke="none"
   d="m 481.44833,90.497665 c -5.8869,1.61615 -9.01569,-3.09871 -13.63599,-5.09878 3.77069,-4.640372 8.80499,-10.094762 13.42951,-14.528202 4.22314,2.46391 8.58294,4.13361 9.17431,9.52722 -2.69024,3.10981 -6.00543,6.844622 -8.96783,10.099762 z"
   id="path20"
   sodipodi:nodetypes="ccccc"
   style="display:inline" />


<path
   fill="#f04f30"
   opacity="1"
   stroke="none"
   d="m 414.20356,82.430833 c 4.09112,-2.66578 8.52156,-4.40535 13.06032,-6.81264 2.15694,4.04166 4.2984,9.652662 3.78784,12.999292 -4.7757,-0.28183 -7.00262,0.61827 -8.45172,5.63165 -1.17218,4.05537 -4.05969,6.378195 -8.94366,4.21158 2.80828,-5.04271 3.4874,-10.46376 0.54722,-16.029882 z"
   id="path23"
   sodipodi:nodetypes="cccscc"
   style="display:inline" />
<path
   fill="#f15a3e"
   opacity="1"
   stroke="none"
   d="m 530.50387,106.2859 c 2.68805,-3.96306 5.89447,-7.928565 8.86762,-12.099935 2.94219,4.02092 5.72076,7.818325 8.64312,11.951565 -1.35098,4.2369 -5.95048,8.23785 -8.81261,11.62893 -4.00153,-3.55627 -6.46052,-6.65032 -8.69813,-11.48056 z"
   id="path24"
   sodipodi:nodetypes="ccccc"
   style="display:inline" />
<path
   fill="#f04f30"
   opacity="1"
   stroke="none"
   d="m 492.37278,115.50316 c 3.03235,3.75781 7.65569,9.76952 10.5114,13.88329 -1.19513,1.77976 -2.01469,1.96612 -3.03312,3.38995 -2.89061,0.0822 -7.17789,0.27482 -10.00613,0.0797 -3.0236,-0.2086 -5.1702,-4.82944 -7.48074,-7.70158 3.25726,-3.56515 6.78574,-5.80202 9.99326,-8.69005 0.10473,-0.0943 -0.1469,-0.93082 0.0153,-0.9613 z"
   id="path25"
   sodipodi:nodetypes="cccscsc"
   style="display:inline" />
<path
   fill="#f04f30"
   opacity="1"
   stroke="none"
   d="m 490.06771,80.797443 c -0.86792,-5.16815 -5.47772,-6.6191 -9.40332,-9.2338 5.94067,-7.76673 10.80699,-6.70145 17.85692,-6.92643 1.34534,0.80754 1.85439,1.66336 2.94557,2.63481 -4.28329,3.95761 -7.34875,8.94758 -11.39917,13.52542 z"
   id="path26"
   sodipodi:nodetypes="ccccc"
   style="display:inline" />
<path
   fill="#f04f30"
   opacity="1"
   stroke="none"
   d="m 411.3936,126.34391 c 0.90692,-1.15588 1.90525,-2.56292 2.74845,-2.4038 4.76361,0.89892 6.03809,-2.18366 7.3562,-5.92169 3.6471,4.44448 7.40729,9.18502 11.19043,14.14096 -11.32263,2.88055 -16.86539,1.10702 -21.29508,-5.81547 z"
   id="path27"
   sodipodi:nodetypes="csccc"
   style="display:inline" />
<path
   fill="#f15a3e"
   opacity="1"
   stroke="none"
   d="m 536.46359,91.089195 c -7.56598,2.89665 -7.31598,1.9279 -7.93433,11.911475 -2.6615,-3.928875 -4.79346,-7.076195 -7.15124,-10.444815 -0.32483,-1.53859 -0.63683,-3.07415 -0.42353,-4.10988 1.57086,-7.627622 4.51924,-9.416762 8.22675,-10.032232 2.38025,4.01765 4.55926,8.047422 7.28235,12.675452 z"
   id="path28"
   sodipodi:nodetypes="cccscc"
   style="display:inline" />
<path
   fill="#f27c32"
   opacity="1"
   stroke="none"
   d="m 271.38507,120.61055 c 0.75903,-2.03485 1.37484,-3.18948 2.22756,-5.15842 3.87998,2.33872 8.30161,4.21565 12.45957,6.54253 0.48038,3.2547 0.0754,6.94337 0.26034,10.48561 h -15.09069 c 0,-3.83328 0.0703,-7.84107 0.14322,-11.86972 z"
   id="path29"
   sodipodi:nodetypes="cccccc"
   style="display:inline" />
<path
   fill="#f04f30"
   opacity="1"
   stroke="none"
   d="m 348.93758,125.47452 c 3.97681,-2.61251 8.40666,-5.14431 12.75926,-7.54345 2.4674,4.43317 4.28292,9.63407 6.81838,15.03238 -5.64245,0 -10.60351,0.60294 -15.26751,-0.31063 -1.75122,-0.34302 -2.87886,-4.56739 -4.31013,-7.1783 z"
   id="path30"
   sodipodi:nodetypes="cccsc"
   style="display:inline" />
<path
   fill="#f0614a"
   opacity="1"
   stroke="none"
   d="m 549.89242,103.79317 c -0.30115,-1.26738 -0.32019,-2.75855 -0.32196,-4.249725 -0.008,-6.658 -0.81104,-7.56779 -7.76471,-8.79306 1.88556,-3.89905 3.76459,-6.53905 6.26575,-10.151342 1.98034,0.6292 9.77632,-3.16481 10.58948,9.354722 -2.76459,4.43966 -5.62159,9.02764 -8.76856,13.839405 z"
   id="path31"
   sodipodi:nodetypes="cccccc"
   style="display:inline" />

<path
   fill="#f0614a"
   opacity="1"
   stroke="none"
   d="m 458.65833,88.808535 c -0.16667,0.36808 -3.8618,4.07023 -4.90824,4.77599 -2.4981,-2.73844 -5.4094,-6.6205 -7.62357,-8.98769 7.36598,-7.083652 6.56166,-6.494872 8.27719,-7.951502 2.9521,-2.71025 3.96275,-4.11915 5.35723,-5.63563 0.006,4.13393 1.10634,12.920582 -1.10261,17.798832 z"
   id="path33"
   sodipodi:nodetypes="sccccs"
   style="display:inline" />
<path
   fill="#f15a3e"
   opacity="1"
   stroke="none"
   d="m 492.78402,116.01549 c -0.10943,0.37994 -0.32184,0.35467 -0.42657,0.44897 -3.20752,2.88803 -6.40454,5.78781 -9.77076,9.03479 -1.71466,-1.55881 -3.57107,-3.97488 -5.21811,-6.20611 0.87177,-0.74576 2.94236,-0.57193 3.00071,-1.09607 0.50433,-4.52689 3.28036,-7.3736 6.77956,-9.80307 1.78205,2.00654 3.85899,4.92654 5.63517,7.62149 z"
   id="path34"
   sodipodi:nodetypes="csccccc"
   style="display:inline" />
<path
   fill="#f0614a"
   opacity="1"
   stroke="none"
   d="m 546.62643,129.54649 c 0.60992,1.9794 0.76886,3.61356 -2.13751,3.56717 -4.23035,-0.0675 -5.30634,-0.18917 -10.21942,-0.18917 -1.81754,0.0417 -3.97978,-1.00505 -2.82892,-3.20505 2.34729,-2.21784 5.0117,-6.22358 7.60099,-8.54136 2.34365,2.72035 5.30706,5.59318 7.58486,8.36844 z"
   id="path35"
   sodipodi:nodetypes="csccccc"
   style="display:inline" />


<path
   fill="#f15a3e"
   opacity="1"
   stroke="none"
   d="m 452.57052,70.604363 c 1.02383,4.58974 -5.70651,9.26607 -8.55378,12.42328 -0.28277,-5.63228 0.0108,-11.84675 -0.12488,-17.48258 -0.006,-0.25795 3.96518,-0.11469 5.38406,-0.11054 2.40369,2.35321 3.2946,5.16984 3.2946,5.16984 z"
   id="path38"
   sodipodi:nodetypes="ccscc"
   style="display:inline" />
<path
   fill="#f0614a"
   opacity="1"
   stroke="none"
   d="m 443.51981,105.65587 c 0.17,-6.984005 0.0515,-14.019165 0.37972,-21.013685 2.61066,2.20404 5.25742,6.75767 7.34489,8.93999 2.03323,3.78494 -5.37757,8.332295 -7.72461,12.073695 z"
   id="path39"
   sodipodi:nodetypes="cccc"
   style="display:inline" />

<path
   fill="#f0614a"
   opacity="1"
   stroke="none"
   d="m 450.48663,118.64736 c 2.8387,1.80909 1.51126,0.93826 4.27397,2.80608 -2.3496,2.09049 0.2927,-0.56446 -7.63026,6.99976 -1.23917,1.18306 -1.36141,1.20091 -3.55329,3.59485 0.0394,-4.39541 0.01,-4.30145 0.036,-7.79844 2.16791,-1.46091 5.13948,-4.59224 6.87355,-5.60225 z"
   id="path41"
   sodipodi:nodetypes="ccscccc"
   style="display:inline" />

<path
   fill="#f15a3e"
   opacity="1"
   stroke="none"
   d="m 451.07834,127.29094 c 1.48519,-1.36464 3.30441,-3.9486 5.13805,-4.35637 1.72187,2.59336 3.02961,6.107 4.89484,9.5289 l -15.57306,0.0312 c 1.53462,-1.94652 3.86069,-3.38431 5.54017,-5.20378 z"
   id="path43"
   sodipodi:nodetypes="ccccc"
   style="display:inline" />
<path
   fill="#f0614a"
   opacity="1"
   stroke="none"
   d="m 546.84875,126.46543 c -0.45087,-0.40127 -5.615,-6.71184 -5.96503,-7.16676 1.87564,-2.09817 0.92957,-0.34437 6.29685,-5.73991 -0.0507,4.10419 0.36497,8.66696 -0.33182,12.90667 z"
   id="path44"
   sodipodi:nodetypes="cccc"
   style="display:inline" />
<path
   fill="#f0614a"
   opacity="1"
   stroke="none"
   d="m 530.6733,114.06227 c 2.21344,1.26593 3.91931,3.28671 6.388,5.23712 -2.16059,2.53671 -4.45874,5.46137 -6.32959,7.46866 -0.58603,-3.4234 -0.2236,-8.99367 -0.54454,-13.19192 z"
   id="path45"
   sodipodi:nodetypes="ccccc"
   style="display:inline" />
<path
   fill="#f15a3e"
   opacity="1"
   stroke="none"
   d="m 449.51766,117.10069 c -1.60479,1.31925 -3.96357,3.65715 -6.05348,4.67085 0.0158,-0.3806 0.0638,-9.60642 -0.0191,-10.94018 2.23401,2.24067 4.22129,4.23299 6.07254,6.26933 z"
   id="path46"
   sodipodi:nodetypes="ccccc"
   style="display:inline" />
<path
   fill="#f0614a"
   opacity="1"
   stroke="none"
   d="m 498.91342,132.78984 c 0.63024,-1.59195 1.64868,-3.12623 3.05822,-4.6067 2.74992,2.6123 2.8167,2.7016 4.6756,4.74357 -3.12292,0 -5.23425,0.0312 -7.73382,-0.13687 z"
   id="path47"
   sodipodi:nodetypes="cccc"
   style="display:inline" />
<path
   fill="#f0614a"
   opacity="1"
   stroke="none"
   d="m 451.95681,65.546193 c 2.43976,1e-5 6.06708,0.0625 8.50684,0.0625 -1.09681,2.78203 -2.92424,5.6427 -4.90058,7.01875 -1.33429,-1.83526 -2.7359,-5.66139 -3.60626,-7.08126 z"
   id="path48"
   sodipodi:nodetypes="ccccc"
   style="display:inline" />











<path
   fill="#fefffe"
   opacity="1"
   stroke="none"
   d="m 336.07784,95.302855 c 1.34974,3.27964 2.45563,6.314635 3.90534,10.293105 -2.44605,0 -4.46747,0 -6.92395,0.0654 -4.03693,0.0654 -7.63879,0.0654 -12.19305,0.0654 3.26507,-8.295355 6.14563,-15.613775 9.44213,-23.989027 2.06849,4.986302 3.79712,9.153432 5.76953,13.565172 z"
   id="path60"
   style="display:inline" />
</svg>
