<?xml version="1.0" encoding="UTF-8" standalone="no"?>
<!-- Created with Inkscape (http://www.inkscape.org/) -->

<svg
   version="1.1"
   id="svg1"
   width="135"
   height="90"
   viewBox="0 0 135 90"
   xmlns="http://www.w3.org/2000/svg"
   xmlns:svg="http://www.w3.org/2000/svg">
  <defs
     id="defs1" />
  <g
     id="g1">
    <path
       fill="#f6a02c"
       opacity="1"
       stroke="none"
       d="m 73.623003,23.949103 c 4.1972,7.04948 8.47017,14.46409 12.99956,22.07153 5.53408,-9.87701 10.77682,-19.23343 16.018397,-28.59053 0.32465,-0.57959 0.63408,-1.1773 0.94491,-1.75151 4.88138,-9.0176901 9.62412,-11.6008201 21.04096,-10.4765301 0,18.4042301 0.8242,37.3417201 0.35319,56.6596501 -4.31808,-1.88889 -8.55189,-4.16357 -12.43187,-6.50229 -0.85272,1.96894 -1.53884,3.55325 -2.22497,5.13755 v -26.73718 c -0.11549,-0.62013 -0.11678,-1.40863 -1.37033,-0.35014 -0.72095,0.9266 -1.57712,1.77788 -2.14163,2.79159 -4.85126,8.71099 -9.747957,17.39945 -14.407537,26.21281 -1.50262,2.84213 -3.27328,3.99582 -6.58792,4.02923 -3.28143,0.0331 -4.71597,-1.44027 -6.02591,-4.01153 -2.03558,-3.99552 -4.3363,-7.85593 -6.93182,-12.31622 -3.48764,-6.49793 -6.79471,-12.21105 -9.50763,-18.2712 3.61899,-2.49916 7.02116,-5.50084 10.2726,-7.89523 z"
       id="path4"
       style="display:inline" />
    <path
       fill="#f8bf20"
       opacity="1"
       stroke="none"
       d="m 73.629513,23.960543 c -3.05964,2.94085 -6.05046,4.72059 -10.25299,7.96548 -0.6185,2.24876 -0.68567,4.06856 -0.71655,5.88898 -0.15185,8.94684 0.66589,18.0006 -2.95605,26.56102 -5.98646,9.9991 -14.8507,13.66441 -27.04261,12.42003 -0.0725,-5.33838 -2.96936,-7.65032 -2.70624,-12.34874 6.68123,0.65317 17.24481,-2.22859 17.97303,-11.41534 1.10451,-13.93381 0.16046,-27.95958 0.20053,-41.94032 0.006,-1.9612301 7.9e-4,-3.9224901 7.9e-4,-6.5526501 4.70142,0 8.83353,-0.27769 12.8909,0.15122 1.41229,0.14929 3.05542,1.79919 3.87775,3.1875 3.04889,5.1473801 5.79953,10.4714301 8.73147,16.0828201 z"
       id="path6"
       style="display:inline" />
    <path
       fill="#335065"
       opacity="1"
       stroke="none"
       d="M 35.708063,76.956893 C 7.9507329,77.007393 5.9851829,62.015903 5.3340929,38.316713 L 4.8814229,4.8691229 c 6.6873801,-0.16373 10.2801501,-0.12425 14.7128601,-0.0625 0,3.06154 0.26517,19.0772701 0.24867,23.0197801 -0.0588,4.33476 0.23283,15.18082 0.66635,18.30435 -0.25208,15.25407 8.53064,17.79115 14.10528,18.13503 -1.31844,4.9706 1.69905,9.63042 1.09348,12.69111 z"
       id="path7"
       style="display:inline" />
    <path
       fill="#f27c32"
       opacity="1"
       stroke="none"
       d="m 110.32059,60.517843 c 0.75903,-2.03485 1.37484,-3.18948 2.22756,-5.15842 3.87998,2.33872 8.30161,4.21565 12.45957,6.54253 0.48038,3.2547 0.0754,6.94337 0.26034,10.48561 h -15.09069 c 0,-3.83328 0.0703,-7.84107 0.14322,-11.86972 z"
       id="path29"
       style="display:inline" />
  </g>
</svg>
